<?xml version="1.0" standalone="no"?>
<!DOCTYPE svg PUBLIC "-//W3C//DTD SVG 20010904//EN"
 "http://www.w3.org/TR/2001/REC-SVG-20010904/DTD/svg10.dtd">
<svg version="1.0" xmlns="http://www.w3.org/2000/svg"
 width="200.000000pt" height="200.000000pt" viewBox="0 0 200.000000 200.000000"
 preserveAspectRatio="xMidYMid meet">

<g transform="translate(0.000000,200.000000) scale(0.100000,-0.100000)"
fill="#FFFFFF" stroke="none">
<path d="M763 1741 c-243 -140 -440 -258 -437 -262 6 -10 201 -119 213 -119
14 0 881 501 881 509 0 6 -38 29 -160 97 l-55 30 -442 -255z"/>
<path d="M1140 1663 c-157 -91 -352 -204 -435 -252 l-150 -86 -3 -124 c-2
-114 -1 -123 15 -119 10 3 209 116 443 251 l425 245 3 126 c1 69 -1 126 -5
125 -4 0 -136 -75 -293 -166z"/>
<path d="M1480 1415 l0 -133 104 -61 c58 -34 107 -61 110 -61 3 0 6 58 6 130
0 124 -1 130 -22 143 -13 8 -62 37 -110 65 l-88 51 0 -134z"/>
<path d="M1275 1441 l-150 -87 -3 -127 -3 -128 23 12 c13 6 85 47 161 91 l137
80 0 124 c0 68 -3 124 -7 123 -5 0 -75 -40 -158 -88z"/>
<path d="M300 1322 l0 -128 88 -49 c48 -27 97 -55 110 -63 l22 -14 0 128 0
129 -58 32 c-31 18 -81 46 -109 63 l-53 30 0 -128z"/>
<path d="M813 1173 l-253 -146 0 -128 0 -128 148 86 c81 47 198 115 260 151
l112 65 0 123 c0 68 -3 124 -7 124 -5 -1 -122 -66 -260 -147z"/>
<path d="M1405 1221 c-16 -10 -127 -74 -245 -141 -118 -68 -223 -130 -232
-138 -15 -13 -18 -33 -18 -135 0 -109 1 -119 17 -112 10 3 129 70 265 148
l247 142 1 128 c0 70 -1 127 -2 127 -2 0 -16 -9 -33 -19z"/>
<path d="M1480 1111 l0 -128 108 -61 107 -61 3 116 c1 64 1 122 -2 128 -2 6
-52 39 -110 73 l-106 61 0 -128z"/>
<path d="M302 1024 l3 -128 108 -63 107 -62 0 128 0 129 -67 38 c-38 20 -87
48 -111 62 l-43 24 3 -128z"/>
<path d="M1104 747 c-182 -106 -379 -219 -437 -252 l-106 -60 -1 -128 c0 -71
3 -126 8 -124 227 131 799 460 830 477 l42 24 0 128 c0 70 -1 128 -2 127 -2 0
-152 -86 -334 -192z"/>
<path d="M1480 813 l0 -128 52 -30 c29 -16 79 -45 110 -62 l58 -33 0 128 0
127 -58 32 c-31 18 -81 46 -109 63 l-53 30 0 -127z"/>
<path d="M720 825 c-80 -46 -151 -89 -158 -95 -13 -11 -18 -250 -6 -250 4 0
78 41 165 91 l159 91 0 124 c0 68 -3 124 -7 124 -5 0 -73 -38 -153 -85z"/>
<path d="M300 718 l0 -134 68 -38 c37 -21 86 -50 110 -63 l42 -25 0 135 0 136
-95 56 c-52 30 -102 58 -110 61 -13 5 -15 -13 -15 -128z"/>
<path d="M1035 415 c-231 -134 -428 -249 -439 -255 -16 -10 -5 -19 93 -75
l112 -64 434 251 c239 138 435 254 435 259 0 6 -208 131 -213 128 -1 0 -191
-110 -422 -244z"/>
</g>
</svg>
