<?xml version="1.0" standalone="no"?>
<!DOCTYPE svg PUBLIC "-//W3C//DTD SVG 20010904//EN"
 "http://www.w3.org/TR/2001/REC-SVG-20010904/DTD/svg10.dtd">
<svg version="1.0" xmlns="http://www.w3.org/2000/svg"
 width="1001.000000pt" height="898.000000pt" viewBox="0 0 1001.000000 898.000000"
 preserveAspectRatio="xMidYMid meet">

<g transform="translate(0.000000,898.000000) scale(0.100000,-0.100000)"
fill="#FFFFFF" stroke="none">
<path d="M5234 8948 c-31 -35 -74 -96 -74 -104 0 -4 -7 -16 -17 -26 -27 -30
-48 -71 -83 -158 -54 -136 -71 -285 -77 -678 l-5 -303 -21 33 c-31 48 -53 89
-70 124 -8 17 -20 35 -26 38 -6 4 -11 16 -11 27 0 10 -4 19 -8 19 -5 0 -16 17
-25 38 -9 20 -31 64 -49 97 -17 33 -40 80 -51 105 -11 25 -28 61 -37 80 -9 19
-25 62 -35 95 -10 33 -26 81 -36 107 -11 26 -19 56 -19 67 0 12 -9 54 -20 93
-11 40 -20 83 -20 96 0 12 -7 39 -15 59 -12 29 -18 33 -29 24 -17 -14 -66
-112 -66 -132 0 -8 -4 -19 -9 -25 -23 -24 -64 -235 -88 -449 -26 -232 -26
-764 0 -885 18 -84 46 -148 80 -182 9 -10 17 -28 17 -41 0 -19 -9 -25 -67 -40
-174 -47 -337 -95 -398 -118 -28 -11 -57 -19 -65 -19 -8 0 -53 -14 -100 -31
-47 -16 -102 -34 -124 -40 -21 -5 -51 -16 -67 -24 -15 -8 -35 -15 -44 -15 -9
0 -35 -9 -57 -20 -23 -11 -49 -20 -58 -20 -9 0 -33 -9 -55 -20 -22 -11 -46
-20 -55 -20 -8 0 -28 -7 -44 -15 -15 -8 -34 -15 -40 -15 -6 0 -29 -9 -51 -20
-22 -11 -45 -20 -52 -20 -7 0 -32 -9 -55 -19 -24 -11 -72 -31 -108 -46 -36
-15 -81 -34 -100 -42 -19 -9 -48 -22 -65 -29 -16 -7 -57 -26 -90 -42 -161 -79
-160 -79 -168 -182 -8 -106 -46 -217 -112 -325 -13 -22 -27 -47 -31 -55 -4 -8
-10 -17 -13 -20 -16 -14 -71 -90 -71 -98 0 -6 -7 -12 -15 -16 -8 -3 -15 -10
-15 -17 0 -12 -198 -209 -211 -209 -5 0 -13 -9 -19 -20 -6 -11 -17 -20 -24
-20 -8 0 -16 -7 -20 -15 -3 -8 -10 -15 -16 -15 -5 0 -18 -8 -28 -17 -38 -36
-72 -63 -82 -63 -5 0 -14 -9 -20 -20 -6 -11 -17 -20 -25 -20 -7 0 -15 -4 -17
-8 -1 -4 -25 -23 -53 -42 -27 -19 -54 -41 -58 -47 -4 -7 -15 -13 -22 -13 -8 0
-15 -4 -15 -8 0 -5 -18 -18 -40 -31 -22 -12 -40 -26 -40 -32 0 -5 -4 -9 -10
-9 -9 0 -120 -72 -147 -95 -6 -5 -25 -21 -42 -34 -27 -20 -42 -51 -25 -51 18
0 157 34 205 51 31 10 62 19 70 19 7 0 38 10 69 21 30 12 73 28 95 36 100 37
276 119 368 172 16 9 38 21 50 28 30 17 114 76 201 142 73 56 306 283 306 298
0 5 8 16 18 25 9 9 22 23 27 30 46 60 65 87 65 91 0 3 27 46 60 95 33 50 60
94 60 98 0 22 93 80 160 99 14 4 34 14 45 21 11 8 26 14 35 14 8 0 28 7 43 15
15 8 42 19 60 24 18 5 70 24 117 41 47 18 99 36 115 40 17 5 44 13 60 19 32
11 138 40 220 61 94 23 222 24 305 2 70 -18 151 -56 158 -74 2 -4 9 -8 16 -8
17 0 134 -117 141 -141 4 -10 10 -19 13 -19 4 0 16 -16 26 -35 11 -19 23 -35
28 -35 4 0 8 -9 8 -19 0 -11 4 -21 8 -23 4 -1 24 -32 44 -68 41 -75 115 -214
127 -238 4 -9 17 -36 29 -59 12 -23 22 -48 22 -56 0 -7 9 -32 20 -55 11 -22
20 -51 20 -63 0 -18 25 -83 38 -99 2 -3 178 -5 390 -5 295 0 430 -4 567 -18
199 -19 401 -53 455 -76 35 -14 35 -14 10 -22 -14 -4 -47 -7 -74 -8 -79 -2
-214 -21 -301 -42 -128 -33 -250 -86 -250 -110 0 -16 56 -28 130 -28 90 -1
385 -53 520 -92 66 -19 126 -40 220 -76 65 -24 216 -104 267 -140 26 -18 50
-33 54 -33 3 0 11 -6 19 -13 7 -6 28 -23 46 -37 66 -50 179 -177 179 -200 0
-5 -28 5 -62 23 -119 62 -278 108 -440 128 -130 15 -135 11 -94 -76 92 -191
109 -437 44 -620 -23 -63 -64 -134 -85 -148 -7 -4 -13 -12 -13 -17 0 -13 -86
-100 -98 -100 -5 0 -12 -7 -16 -15 -3 -8 -12 -15 -21 -15 -8 0 -15 -4 -15 -8
0 -4 -15 -16 -32 -27 -18 -10 -35 -21 -38 -25 -9 -13 -177 -89 -241 -110 -88
-29 -139 -53 -136 -65 5 -13 73 -33 116 -34 67 -2 389 -89 489 -132 23 -11 48
-19 54 -19 20 0 322 -122 403 -163 181 -92 305 -158 370 -198 44 -27 87 -52
95 -56 8 -4 35 -21 60 -37 52 -35 71 -48 118 -77 17 -12 32 -25 32 -30 0 -5 5
-9 11 -9 8 0 171 -123 219 -167 45 -40 190 -186 190 -190 0 -3 10 -15 23 -27
25 -25 42 -45 113 -136 60 -77 90 -127 82 -135 -5 -5 -119 39 -170 66 -10 5
-34 13 -55 18 -21 6 -85 26 -143 45 -184 63 -204 69 -239 72 l-34 3 29 -18
c16 -9 58 -32 94 -50 93 -47 152 -83 181 -110 10 -9 36 -32 60 -51 50 -41 50
-42 111 -111 62 -70 138 -166 138 -173 0 -4 16 -29 35 -56 19 -27 35 -52 35
-54 0 -6 44 -75 59 -92 11 -14 106 -188 122 -224 6 -14 16 -34 22 -45 6 -11
17 -32 25 -47 7 -16 22 -28 32 -28 19 0 207 179 320 305 92 102 290 351 290
364 0 6 4 11 9 11 6 0 20 18 32 40 13 22 26 40 31 40 4 0 8 4 8 10 0 9 39 72
60 97 6 7 15 23 20 35 6 13 14 30 18 38 32 55 82 164 102 220 7 19 17 39 22
44 4 6 8 18 8 28 0 9 6 32 14 50 50 119 123 403 153 598 35 229 20 631 -33
882 -14 67 -18 128 -9 128 3 0 13 -4 23 -9 107 -52 325 -121 385 -121 44 0 46
9 16 83 -11 29 -30 75 -41 102 -11 28 -28 68 -39 90 -10 22 -19 43 -19 47 0
17 -185 401 -206 428 -6 8 -25 40 -41 70 -16 30 -43 75 -59 100 -16 25 -33 52
-39 61 -28 45 -51 75 -62 82 -7 4 -13 12 -13 18 0 5 -4 15 -10 22 -95 115
-236 260 -364 372 -44 39 -90 80 -103 93 -13 12 -27 22 -30 22 -3 0 -15 10
-27 23 -11 12 -56 51 -98 86 -43 35 -78 68 -78 72 0 5 -5 9 -11 9 -14 0 -109
95 -109 109 0 6 11 16 25 23 20 9 43 6 122 -16 134 -37 173 -45 178 -36 3 4
-23 33 -58 64 -34 31 -69 63 -78 71 -9 8 -19 15 -23 15 -9 0 -80 52 -84 63 -2
4 -8 7 -13 7 -6 0 -22 8 -37 18 -71 49 -153 102 -156 102 -3 0 -35 17 -73 39
-92 51 -155 86 -181 100 -12 6 -32 16 -44 22 -12 7 -63 32 -113 56 -49 24 -97
48 -105 52 -34 18 -58 29 -105 50 -27 12 -63 29 -78 37 -16 8 -33 14 -39 14
-6 0 -29 8 -52 19 -109 49 -137 61 -147 61 -5 0 -29 9 -51 20 -23 11 -47 20
-54 20 -6 0 -33 8 -60 19 -27 10 -71 25 -99 33 -27 8 -81 24 -120 36 -112 33
-212 59 -324 84 -117 26 -108 19 -186 166 -21 39 -42 72 -47 72 -4 0 -8 9 -8
20 0 11 -4 20 -8 20 -5 0 -16 15 -25 33 -10 17 -25 43 -35 57 -9 14 -28 43
-40 63 -13 20 -28 37 -33 37 -5 0 -9 5 -9 10 0 14 -157 212 -176 223 -8 4 -14
12 -14 17 0 5 -28 37 -63 72 -270 271 -537 573 -537 606 0 6 -6 15 -13 19 -8
4 -22 23 -32 41 -11 17 -23 32 -27 32 -4 0 -8 9 -8 20 0 11 -4 20 -9 20 -5 0
-16 16 -25 35 -9 19 -21 37 -26 40 -6 3 -10 13 -10 21 0 8 -9 24 -20 36 -11
12 -20 30 -20 40 0 10 -4 18 -9 18 -5 0 -16 17 -25 38 -8 20 -23 51 -32 67 -9
17 -21 38 -26 48 -4 9 -12 25 -17 35 -5 9 -17 37 -27 62 -10 25 -26 64 -36 87
-10 23 -18 47 -18 53 0 18 -31 60 -44 60 -7 0 -21 -10 -32 -22z m93 -643 c14
-33 31 -73 38 -90 25 -59 97 -199 115 -225 6 -8 16 -25 23 -37 7 -12 30 -52
52 -88 22 -37 45 -76 51 -86 6 -10 18 -27 27 -37 10 -10 17 -24 17 -30 0 -6 6
-15 13 -19 7 -4 28 -33 47 -63 19 -30 37 -57 40 -60 4 -3 10 -12 14 -20 4 -8
18 -33 31 -55 32 -53 79 -149 100 -205 10 -25 26 -61 36 -81 11 -20 19 -43 19
-51 0 -8 9 -33 20 -56 11 -22 20 -47 20 -55 0 -7 9 -32 20 -55 11 -22 20 -47
20 -55 0 -8 7 -32 17 -53 9 -22 19 -55 24 -74 4 -19 12 -48 17 -65 17 -49 33
-127 28 -133 -3 -3 -22 8 -42 24 -21 16 -65 51 -98 77 -91 71 -159 116 -216
143 -19 9 -37 19 -40 23 -8 10 -84 38 -184 68 -54 16 -62 22 -83 63 -13 25
-28 61 -33 80 -5 19 -15 55 -23 80 -36 111 -76 346 -88 510 -5 74 -13 203 -19
285 -13 203 -13 408 0 403 6 -2 23 -30 37 -63z"/>
<path d="M3295 5729 c-83 -7 -133 -16 -161 -29 -22 -11 -46 -20 -52 -20 -7 0
-12 -4 -12 -8 0 -4 -12 -15 -27 -24 -16 -9 -68 -56 -118 -103 -117 -113 -230
-205 -252 -205 -5 0 -26 -14 -47 -32 l-39 -32 29 -8 c16 -4 133 -11 259 -14
255 -8 336 1 415 42 67 36 79 45 124 93 23 25 49 53 59 63 9 10 17 20 17 23 0
19 148 135 172 135 8 0 18 4 23 9 19 17 160 53 243 61 87 9 105 16 84 29 -30
18 -556 33 -717 20z"/>
<path d="M518 4605 c-23 -19 -48 -40 -55 -45 -7 -6 -19 -10 -28 -10 -8 0 -15
-4 -15 -8 0 -9 -144 -72 -290 -127 -99 -37 -115 -49 -118 -94 -2 -22 3 -55 11
-73 8 -18 24 -58 37 -88 12 -30 27 -64 33 -75 6 -11 19 -36 29 -55 10 -19 22
-42 27 -50 5 -8 19 -35 32 -60 12 -25 26 -47 29 -50 4 -3 15 -22 25 -42 9 -21
21 -38 26 -38 5 0 9 -5 9 -10 0 -14 52 -93 67 -103 7 -4 13 -12 13 -17 0 -13
144 -213 183 -255 7 -7 22 -26 34 -42 49 -64 160 -180 213 -223 23 -19 50 -43
58 -52 9 -10 22 -18 28 -18 6 0 17 -7 24 -15 34 -41 238 -120 350 -135 30 -4
100 -15 155 -23 145 -24 496 -57 595 -57 47 0 157 -5 245 -10 88 -6 329 -15
535 -20 206 -6 402 -15 435 -20 33 -5 96 -14 140 -19 157 -18 447 -89 563
-137 18 -8 39 -14 46 -14 8 0 31 -9 53 -19 21 -11 65 -32 98 -47 33 -15 62
-30 65 -34 3 -3 30 -19 60 -34 30 -16 57 -32 60 -36 3 -3 20 -15 38 -25 17
-11 32 -23 32 -27 0 -4 5 -8 11 -8 12 0 88 -60 153 -119 39 -37 176 -196 176
-205 0 -3 11 -22 25 -42 14 -20 42 -71 62 -113 l38 -76 0 -180 c0 -162 -3
-187 -24 -250 -24 -73 -57 -157 -72 -187 -5 -10 -13 -27 -19 -38 -5 -11 -14
-29 -20 -40 -18 -35 -33 -65 -42 -80 -4 -8 -12 -25 -18 -38 -5 -12 -14 -28
-20 -35 -21 -25 -60 -88 -60 -97 0 -6 -4 -10 -8 -10 -4 0 -15 -12 -24 -28 -9
-15 -25 -37 -35 -49 -10 -12 -28 -35 -40 -50 -12 -15 -51 -59 -87 -97 -37 -38
-66 -72 -66 -77 0 -5 -5 -9 -11 -9 -7 0 -26 -16 -45 -35 -18 -19 -37 -35 -43
-35 -6 0 -15 -9 -21 -20 -6 -11 -15 -20 -20 -20 -7 0 -28 -15 -79 -60 -22 -18
-51 -38 -71 -47 -8 -4 -36 -21 -61 -39 -70 -49 -207 -119 -269 -137 -30 -8
-89 -25 -130 -37 -41 -12 -91 -28 -110 -37 -32 -14 -33 -16 -16 -29 10 -7 42
-18 70 -23 253 -50 490 -62 686 -36 69 9 154 20 190 25 165 21 624 150 765
214 17 8 59 27 95 41 88 37 276 129 325 160 22 13 54 32 70 41 17 9 32 20 35
23 3 3 14 12 25 19 11 7 35 22 53 33 17 12 32 25 32 30 0 5 7 9 15 9 8 0 19 9
25 20 6 11 16 20 22 20 14 0 248 234 248 249 0 6 4 11 8 11 5 0 14 10 20 23 6
12 23 40 37 62 25 39 30 51 65 130 29 65 50 177 50 264 0 154 -49 309 -147
468 -18 29 -33 55 -33 58 0 8 -63 89 -72 93 -5 2 -8 10 -8 17 0 8 -9 19 -20
25 -11 6 -20 15 -20 19 0 27 -293 321 -319 321 -4 0 -14 8 -22 18 -9 9 -29 26
-44 37 -16 11 -58 43 -94 70 -64 49 -106 79 -140 100 -42 26 -64 45 -58 51 3
3 35 1 70 -5 35 -6 78 -11 96 -11 60 0 320 -61 393 -93 18 -8 58 -24 88 -37
30 -12 81 -36 114 -52 32 -16 60 -27 62 -25 7 7 -153 149 -271 242 -60 47
-120 95 -131 106 -12 10 -25 19 -28 19 -3 0 -29 16 -56 35 -27 19 -54 35 -60
35 -5 0 -10 4 -10 8 0 4 -19 18 -42 31 -143 75 -215 110 -228 110 -9 1 -24 7
-35 14 -11 7 -54 26 -95 41 -68 26 -104 39 -210 76 -19 6 -54 16 -78 21 -23 5
-51 13 -62 19 -10 5 -45 14 -77 19 -32 5 -94 16 -138 24 -267 52 -881 71
-1490 47 -390 -15 -715 -29 -965 -43 -426 -22 -660 -13 -820 33 -36 11 -76 22
-90 26 -44 12 -174 77 -222 111 -26 18 -50 33 -54 33 -7 0 -98 74 -152 125
-49 45 -172 189 -172 200 0 4 -6 13 -14 19 -7 6 -33 47 -57 91 l-43 80 0 110
c0 104 2 114 32 171 17 33 46 79 64 101 33 41 180 163 196 163 5 0 16 8 26 18
15 18 13 20 -41 36 -53 16 -121 44 -165 67 -29 15 -44 11 -90 -26z"/>
</g>
</svg>
